<svg xmlns="http://www.w3.org/2000/svg" xmlns:xlink="http://www.w3.org/1999/xlink" width="59.328" height="59.328" fill="none" version="1.1" viewBox="0 0 59.328 59.328"><defs><filter id="master_svg0_25_76578/25_77636" width="1.203" height="1.203" x="-.101" y="-.076" color-interpolation-filters="sRGB" filterUnits="objectBoundingBox"><feFlood flood-opacity="0" result="BackgroundImageFix"/><feColorMatrix in="SourceAlpha" type="matrix" values="0 0 0 0 0 0 0 0 0 0 0 0 0 0 0 0 0 0 127 0"/><feOffset dx="0" dy="1"/><feGaussianBlur stdDeviation="1"/><feColorMatrix type="matrix" values="0 0 0 0 0.364705890417099 0 0 0 0 0.364705890417099 0 0 0 0 0.364705890417099 0 0 0 0.25 0"/><feBlend in2="BackgroundImageFix" mode="normal" result="effect1_dropShadow"/><feBlend in="SourceGraphic" in2="effect1_dropShadow" mode="normal" result="shape"/></filter><clipPath id="master_svg1_25_76578/25_77636"><rect width="44.064" height="44.064" x="10.99" y="3.89" rx="22.032"/></clipPath></defs><g filter="url(#master_svg0_25_76578/25_77636)" transform="matrix(0.988533079624176,0.1510046422481537,-0.1510046422481537,0.988533079624176,1.0859220228050148,-1.9349639035837178)"><g clip-path="url(#master_svg1_25_76578/25_77636)"><rect width="39.478" height="39.478" x="13.283" y="6.183" fill="#95D87B" fill-opacity="1" rx="19.739"/><g transform="matrix(1,-2.3730866161031372e-8,2.3730866161031372e-8,1,-3.580378695744457e-7,5.035478505277524e-7)"><rect width="13.573" height="9.332" x="25.883" y="15.087" fill="#FFF" fill-opacity="1" rx="0"/><rect width="13.573" height="4.666" x="25.883" y="33.326" fill="#FFF" fill-opacity="1" rx="0"/><rect width="4.666" height="8.907" x="21.219" y="24.419" fill="#FFF" fill-opacity="1" rx="0"/><rect width="4.666" height="8.907" x="39.457" y="24.419" fill="#FFF" fill-opacity="1" rx="0"/><rect width="4.666" height="4.666" x="34.791" y="28.661" fill="#FFF" fill-opacity="1" rx="0"/><rect width="4.666" height="4.666" x="25.883" y="28.66" fill="#FFF" fill-opacity="1" rx="0"/><rect width="4.242" height="4.242" x="30.551" y="24.419" fill="#FFF" fill-opacity="1" rx="0"/></g><rect width="41.771" height="41.771" x="12.137" y="5.036" fill="none" fill-opacity="0" stroke="#FFF" stroke-opacity="1" stroke-width="2.293" rx="20.885"/></g></g></svg>