<svg xmlns="http://www.w3.org/2000/svg" xmlns:xlink="http://www.w3.org/1999/xlink" width="60.51" height="60.51" fill="none" version="1.1" viewBox="0 0 60.51 60.51"><defs><filter id="master_svg0_25_76578/25_77745" width="1.203" height="1.203" x="-.101" y="-.076" color-interpolation-filters="sRGB" filterUnits="objectBoundingBox"><feFlood flood-opacity="0" result="BackgroundImageFix"/><feColorMatrix in="SourceAlpha" type="matrix" values="0 0 0 0 0 0 0 0 0 0 0 0 0 0 0 0 0 0 127 0"/><feOffset dx="0" dy="1"/><feGaussianBlur stdDeviation="1"/><feColorMatrix type="matrix" values="0 0 0 0 0.364705890417099 0 0 0 0 0.364705890417099 0 0 0 0 0.364705890417099 0 0 0 0.25 0"/><feBlend in2="BackgroundImageFix" mode="normal" result="effect1_dropShadow"/><feBlend in="SourceGraphic" in2="effect1_dropShadow" mode="normal" result="shape"/></filter><clipPath id="master_svg1_25_76578/25_77745"><rect width="44.064" height="44.064" x="4.843" y="11.073" rx="22.032"/></clipPath></defs><g filter="url(#master_svg0_25_76578/25_77745)" transform="matrix(0.9839867353439331,-0.17824174463748932,0.17824174463748932,0.9839867353439331,-2.2681994688096463,1.4859187654753914)"><g clip-path="url(#master_svg1_25_76578/25_77745)"><rect width="39.477" height="39.477" x="7.136" y="13.366" fill="#FFAA64" fill-opacity="1" rx="19.739"/><g transform="matrix(1,2.932508991193572e-8,-2.932508991193572e-8,1,6.762937410087488e-7,-4.291292867719676e-7)"><rect width="13.64" height="4.759" x="19.18" y="23.062" fill="#FFF" fill-opacity="1" rx="0"/><rect width="9.36" height="8.989" x="14.634" y="27.82" fill="#FFF" fill-opacity="1" rx="0"/><rect width="9.36" height="8.989" x="28.274" y="27.821" fill="#FFF" fill-opacity="1" rx="0"/><rect width="4.279" height="4.23" x="23.993" y="36.809" fill="#FFF" fill-opacity="1" rx="0"/><rect width="5.081" height="5.023" x="18.913" y="41.039" fill="#FFF" fill-opacity="1" rx="0"/><rect width="5.081" height="5.023" x="28.272" y="41.039" fill="#FFF" fill-opacity="1" rx="0"/><rect width="4.279" height="4.23" x="33.354" y="36.809" fill="#FFF" fill-opacity="1" rx="0"/><rect width="4.279" height="4.23" x="14.636" y="36.809" fill="#FFF" fill-opacity="1" rx="0"/></g><rect width="41.771" height="41.771" x="5.989" y="12.22" fill="none" fill-opacity="0" stroke="#FFF" stroke-opacity="1" stroke-width="2.293" rx="20.885"/></g></g></svg>